<svg xmlns="http://www.w3.org/2000/svg" viewBox="0 0 640 360" role="img" aria-label="CPU processor">
  <rect width="640" height="360" fill="#f8fafc"/>
  <rect x="176" y="68" width="288" height="224" rx="18" fill="#d7dde4" stroke="#566579" stroke-width="8"/>
  <rect x="208" y="100" width="224" height="160" rx="10" fill="#f1f5f9" stroke="#94a3b8" stroke-width="3"/>
  <g fill="#1f7a8c">
    <rect x="126" y="98" width="34" height="10" rx="4"/>
    <rect x="126" y="138" width="34" height="10" rx="4"/>
    <rect x="126" y="178" width="34" height="10" rx="4"/>
    <rect x="126" y="218" width="34" height="10" rx="4"/>
    <rect x="480" y="98" width="34" height="10" rx="4"/>
    <rect x="480" y="138" width="34" height="10" rx="4"/>
    <rect x="480" y="178" width="34" height="10" rx="4"/>
    <rect x="480" y="218" width="34" height="10" rx="4"/>
    <rect x="226" y="38" width="10" height="34" rx="4"/>
    <rect x="266" y="38" width="10" height="34" rx="4"/>
    <rect x="306" y="38" width="10" height="34" rx="4"/>
    <rect x="346" y="38" width="10" height="34" rx="4"/>
    <rect x="386" y="38" width="10" height="34" rx="4"/>
    <rect x="226" y="288" width="10" height="34" rx="4"/>
    <rect x="266" y="288" width="10" height="34" rx="4"/>
    <rect x="306" y="288" width="10" height="34" rx="4"/>
    <rect x="346" y="288" width="10" height="34" rx="4"/>
    <rect x="386" y="288" width="10" height="34" rx="4"/>
  </g>
  <text x="320" y="172" text-anchor="middle" font-family="Arial, Helvetica, sans-serif" font-size="44" font-weight="800" fill="#135465">CPU</text>
  <text x="320" y="214" text-anchor="middle" font-family="Arial, Helvetica, sans-serif" font-size="22" font-weight="700" fill="#64748b">processor</text>
</svg>
