<svg xmlns="http://www.w3.org/2000/svg" viewBox="0 0 640 360" role="img" aria-label="Motherboard">
  <rect width="640" height="360" fill="#f8fafc"/>
  <rect x="122" y="48" width="396" height="264" rx="18" fill="#0f5f66" stroke="#134e5a" stroke-width="8"/>
  <rect x="176" y="94" width="118" height="118" rx="14" fill="#d7dde4" stroke="#94a3b8" stroke-width="6"/>
  <rect x="204" y="122" width="62" height="62" rx="8" fill="#f1f5f9"/>
  <rect x="334" y="86" width="28" height="174" rx="6" fill="#111827"/>
  <rect x="378" y="86" width="28" height="174" rx="6" fill="#111827"/>
  <rect x="156" y="244" width="238" height="24" rx="8" fill="#1e293b"/>
  <rect x="156" y="276" width="188" height="18" rx="6" fill="#1e293b"/>
  <g fill="#d8b44a">
    <circle cx="454" cy="98" r="12"/>
    <circle cx="454" cy="148" r="12"/>
    <circle cx="454" cy="198" r="12"/>
    <circle cx="454" cy="248" r="12"/>
  </g>
  <path d="M294 152h40M406 172h48M235 212v32M294 244h62" stroke="#dbeafe" stroke-width="5" stroke-linecap="round"/>
  <text x="320" y="338" text-anchor="middle" font-family="Arial, Helvetica, sans-serif" font-size="30" font-weight="800" fill="#135465">Motherboard</text>
</svg>
