<svg xmlns="http://www.w3.org/2000/svg" viewBox="0 0 640 360" role="img" aria-label="DDR4 memory">
  <rect width="640" height="360" fill="#f8fafc"/>
  <rect x="72" y="124" width="496" height="118" rx="14" fill="#12634f" stroke="#0f3d33" stroke-width="8"/>
  <rect x="110" y="156" width="58" height="44" rx="6" fill="#111827"/>
  <rect x="190" y="156" width="58" height="44" rx="6" fill="#111827"/>
  <rect x="270" y="156" width="58" height="44" rx="6" fill="#111827"/>
  <rect x="350" y="156" width="58" height="44" rx="6" fill="#111827"/>
  <rect x="430" y="156" width="58" height="44" rx="6" fill="#111827"/>
  <g fill="#d8b44a">
    <rect x="108" y="234" width="28" height="18"/>
    <rect x="148" y="234" width="28" height="18"/>
    <rect x="188" y="234" width="28" height="18"/>
    <rect x="228" y="234" width="28" height="18"/>
    <rect x="288" y="234" width="28" height="18"/>
    <rect x="328" y="234" width="28" height="18"/>
    <rect x="368" y="234" width="28" height="18"/>
    <rect x="408" y="234" width="28" height="18"/>
    <rect x="448" y="234" width="28" height="18"/>
    <rect x="488" y="234" width="28" height="18"/>
  </g>
  <text x="320" y="88" text-anchor="middle" font-family="Arial, Helvetica, sans-serif" font-size="38" font-weight="800" fill="#135465">DDR4 RAM</text>
</svg>
